<svg xmlns="http://www.w3.org/2000/svg" width="300" height="90" viewBox="0 0 300 90"><g style="line-height:125%" font-weight="400" font-size="65.708" font-family="sans-serif" letter-spacing="0" word-spacing="0" fill-opacity=".9"><path d="M52.926 20.004q2.08 0 3.505 1.424 1.423 1.423 1.423 3.504v36.14q0 2.08-1.423 3.504Q55.007 66 52.926 66H29.928q-2.08 0-3.504-1.424Q25 63.153 25 61.072v-36.14q0-2.08 1.424-3.504 1.423-1.424 3.504-1.424h22.998zm36.191 13.142q2.08 0 3.504 1.423 1.424 1.424 1.424 3.505v22.998q0 2.08-1.424 3.504Q91.198 66 89.117 66H66.119q-2.08 0-3.504-1.424-1.424-1.423-1.424-3.504V38.074q0-2.08 1.424-3.505 1.423-1.423 3.504-1.423h22.998zm36.191 0q2.08 0 3.504 1.423 1.424 1.424 1.424 3.505v22.998q0 2.08-1.424 3.504Q127.39 66 125.308 66H102.31q-2.08 0-3.504-1.424-1.424-1.423-1.424-3.504V38.074q0-2.08 1.424-3.505 1.423-1.423 3.504-1.423h22.998zm39.695-11.718q1.424 1.423 1.424 3.504t-1.424 3.505q-1.423 1.423-3.504 1.423h-22.998q-2.08 0-3.504-1.423-1.424-1.424-1.424-3.505 0-2.08 1.424-3.504 1.423-1.424 3.504-1.424h22.998q2.08 0 3.504 1.424zM161.5 33.146q2.08 0 3.504 1.423 1.424 1.424 1.424 3.505v22.998q0 2.08-1.424 3.504T161.5 66h-22.998q-2.08 0-3.504-1.424-1.424-1.423-1.424-3.504V38.074q0-2.08 1.424-3.505 1.423-1.423 3.504-1.423H161.5z" style="-inkscape-font-specification:'Vain Mon'" font-family="Vain Mon"/><path d="M169.764 66V33.146h32.854V66h-32.854zm36.191 0V33.146h32.854V66h-32.854zm36.191 0V33.146H275V66h-32.854z" style="-inkscape-font-specification:Vain" font-family="Vain" fill="#fff"/></g></svg>