<svg xmlns="http://www.w3.org/2000/svg" width="350" height="350" viewBox="0 0 350 350"><path d="M0 0h350v350H0z" fill="none"/><path d="M-5-5v360h360V-5zm49.756 67.686h45.533c2.746 0 5.058.94 6.938 2.82 1.879 1.879 2.818 4.191 2.818 6.937v71.551c0 2.747-.94 5.059-2.818 6.938-1.88 1.879-4.192 2.818-6.938 2.818H44.756c-2.747 0-5.059-.94-6.938-2.818-1.879-1.88-2.818-4.191-2.818-6.938v-71.55c0-2.747.94-5.06 2.818-6.938 1.88-1.88 4.191-2.82 6.938-2.82zm214.955 0h45.533c2.746 0 5.059.94 6.938 2.82 1.879 1.879 2.818 4.191 2.818 6.937 0 2.747-.94 5.059-2.818 6.938-1.88 1.879-4.192 2.818-6.938 2.818h-45.533c-2.746 0-5.058-.94-6.938-2.818-1.879-1.88-2.818-4.191-2.818-6.938 0-2.746.94-5.058 2.818-6.937 1.88-1.88 4.192-2.82 6.938-2.82zm-143.303 26.02h45.531c2.747 0 5.06.938 6.94 2.817 1.879 1.88 2.818 4.192 2.818 6.938v45.533c0 2.747-.939 5.059-2.818 6.938-1.88 1.879-4.193 2.818-6.94 2.818h-45.53c-2.747 0-5.06-.94-6.938-2.818-1.88-1.88-2.819-4.191-2.819-6.938V98.461c0-2.746.94-5.058 2.819-6.938 1.879-1.879 4.19-2.818 6.937-2.818zm71.653 0h45.53c2.747 0 5.06.938 6.938 2.817 1.88 1.88 2.819 4.192 2.819 6.938v45.533c0 2.747-.94 5.059-2.819 6.938-1.879 1.879-4.19 2.818-6.937 2.818H188.06c-2.747 0-5.06-.94-6.94-2.818-1.879-1.88-2.818-4.191-2.818-6.938V98.461c0-2.746.939-5.058 2.818-6.938 1.88-1.879 4.193-2.818 6.94-2.818zm71.65 0h45.533c2.746 0 5.059.938 6.938 2.817 1.879 1.88 2.818 4.192 2.818 6.938v45.533c0 2.747-.94 5.059-2.818 6.938-1.88 1.879-4.192 2.818-6.938 2.818h-45.533c-2.746 0-5.058-.94-6.938-2.818-1.879-1.88-2.818-4.191-2.818-6.938V98.461c0-2.746.94-5.058 2.818-6.938 1.88-1.879 4.192-2.818 6.938-2.818zM35 197.585h87.414V285H35zm96.293 0h87.414V285h-87.414zm96.293 0H315V285h-87.414z" fill="#111"/></svg>