<svg xmlns="http://www.w3.org/2000/svg" width="350" height="350"><g letter-spacing="0" word-spacing="0"><path d="M90.289 63.843q4.12 0 6.938 2.819 2.818 2.819 2.818 6.938v71.55q0 4.12-2.818 6.938-2.819 2.819-6.938 2.819H44.757q-4.12 0-6.938-2.819Q35 149.27 35 145.15V73.6q0-4.12 2.819-6.938 2.818-2.819 6.938-2.819h45.532zM161.94 89.861q4.12 0 6.938 2.819 2.819 2.819 2.819 6.938v45.532q0 4.12-2.819 6.938-2.818 2.819-6.938 2.819h-45.532q-4.12 0-6.938-2.819-2.818-2.818-2.818-6.938V99.618q0-4.12 2.818-6.938 2.819-2.819 6.938-2.819h45.532zM233.592 89.861q4.12 0 6.938 2.819 2.818 2.819 2.818 6.938v45.532q0 4.12-2.818 6.938-2.819 2.819-6.938 2.819H188.06q-4.12 0-6.938-2.819-2.819-2.818-2.819-6.938V99.618q0-4.12 2.819-6.938 2.818-2.819 6.938-2.819h45.532zM312.181 66.662Q315 69.48 315 73.6q0 4.12-2.819 6.938-2.818 2.819-6.938 2.819h-45.532q-4.12 0-6.938-2.819-2.818-2.818-2.818-6.938 0-4.12 2.818-6.938 2.819-2.819 6.938-2.819h45.532q4.12 0 6.938 2.819zm-6.938 23.2q4.12 0 6.938 2.818Q315 95.499 315 99.618v45.532q0 4.12-2.819 6.938-2.818 2.819-6.938 2.819h-45.532q-4.12 0-6.938-2.819-2.818-2.819-2.818-6.938V99.618q0-4.12 2.818-6.938 2.819-2.819 6.938-2.819h45.532z" style="line-height:125%;-inkscape-font-specification:'Vain Mon';text-align:start" font-weight="400" font-family="Vain Mon" fill="#111"/><path d="M35 286.157v-87.415h87.415v87.415H35zM131.293 286.157v-87.415h87.414v87.415h-87.414zM227.585 286.157v-87.415H315v87.415h-87.415z" style="line-height:125%;-inkscape-font-specification:'Vain, Heavy';text-align:start" font-weight="900" font-size="199.805" font-family="Vain" fill="#f71"/></g></svg>